<svg width="136" height="28" viewBox="0 0 136 28" fill="none" xmlns="http://www.w3.org/2000/svg">
<rect width="136" height="28" rx="4" fill="#0F1217"/>
<g clip-path="url(#clip0_10131_13808)">
<mask id="mask0_10131_13808" style="mask-type:alpha" maskUnits="userSpaceOnUse" x="7" y="6" width="15" height="16">
<path fill-rule="evenodd" clip-rule="evenodd" d="M17.6368 21.3976C17.873 21.4896 18.1424 21.4837 18.3809 21.369L21.4691 19.883C21.7936 19.7268 22 19.3984 22 19.0381V8.96199C22 8.60169 21.7936 8.27327 21.4691 8.11712L18.3809 6.63106C18.0679 6.48048 17.7017 6.51736 17.427 6.71704C17.3878 6.74557 17.3504 6.77741 17.3153 6.81251L11.4033 12.2062L8.82808 10.2514C8.58835 10.0695 8.25304 10.0844 8.0304 10.2869L7.20445 11.0382C6.93212 11.286 6.93181 11.7144 7.20378 11.9625L9.43707 14L7.20378 16.0375C6.93181 16.2856 6.93212 16.7141 7.20445 16.9618L8.0304 17.7131C8.25304 17.9156 8.58835 17.9306 8.82808 17.7486L11.4033 15.7938L17.3153 21.1875C17.4089 21.2811 17.5187 21.3516 17.6368 21.3976ZM18.2523 10.5948L13.7664 14L18.2523 17.4052V10.5948Z" fill="white"/>
</mask>
<g mask="url(#mask0_10131_13808)">
<path d="M21.4692 8.11941L18.3786 6.63131C18.0208 6.45907 17.5933 6.53172 17.3125 6.81248L7.19481 16.0375C6.92267 16.2856 6.92298 16.714 7.19548 16.9618L8.02193 17.7131C8.24471 17.9156 8.58023 17.9305 8.82009 17.7486L21.0042 8.50547C21.4129 8.19537 22 8.48691 22 8.99999V8.96411C22 8.60396 21.7937 8.27565 21.4692 8.11941Z" fill="#0065A9"/>
<g filter="url(#filter0_d_10131_13808)">
<path d="M21.4692 19.8806L18.3786 21.3687C18.0208 21.5409 17.5933 21.4682 17.3125 21.1875L7.19481 11.9625C6.92267 11.7144 6.92298 11.2859 7.19548 11.0382L8.02193 10.2869C8.24471 10.0844 8.58023 10.0694 8.82009 10.2514L21.0042 19.4945C21.4129 19.8046 22 19.5131 22 19V19.0359C22 19.396 21.7937 19.7243 21.4692 19.8806Z" fill="#007ACC"/>
</g>
<g filter="url(#filter1_d_10131_13808)">
<path d="M18.3787 21.3689C18.0208 21.5411 17.5933 21.4683 17.3125 21.1875C17.6585 21.5334 18.25 21.2884 18.25 20.7992V7.20081C18.25 6.71155 17.6585 6.46652 17.3125 6.81248C17.5933 6.5317 18.0208 6.45894 18.3787 6.63103L21.4688 8.11709C21.7935 8.27324 22 8.60167 22 8.96197V19.0381C22 19.3984 21.7935 19.7268 21.4688 19.8829L18.3787 21.3689Z" fill="#1F9CF0"/>
</g>
<g style="mix-blend-mode:overlay" opacity="0.25">
<path fill-rule="evenodd" clip-rule="evenodd" d="M17.6277 21.3976C17.8639 21.4896 18.1333 21.4837 18.3718 21.369L21.46 19.883C21.7845 19.7268 21.9909 19.3984 21.9909 19.0381V8.96203C21.9909 8.60172 21.7845 8.27329 21.46 8.11714L18.3718 6.63109C18.0588 6.48051 17.6926 6.51739 17.4179 6.71707C17.3787 6.7456 17.3413 6.77745 17.3063 6.81254L11.3942 12.2063L8.81898 10.2515C8.57927 10.0695 8.24395 10.0844 8.02131 10.2869L7.19536 11.0383C6.92302 11.286 6.92271 11.7144 7.19469 11.9626L9.42797 14L7.19469 16.0375C6.92271 16.2856 6.92302 16.7141 7.19536 16.9618L8.02131 17.7131C8.24395 17.9157 8.57927 17.9306 8.81898 17.7486L11.3942 15.7938L17.3063 21.1875C17.3998 21.2811 17.5096 21.3516 17.6277 21.3976ZM18.2432 10.5949L13.7573 14L18.2432 17.4052V10.5949Z" fill="url(#paint0_linear_10131_13808)"/>
</g>
</g>
</g>
<path d="M29.6767 18.5L33.1839 8.773H35.0608L38.568 18.5H36.9925L36.102 15.9655H32.129L31.2522 18.5H29.6767ZM32.5948 14.6229H35.6499L34.1155 10.1841L32.5948 14.6229ZM41.9235 18.6644C41.3024 18.6644 40.759 18.5091 40.2932 18.1986C39.8365 17.8881 39.4849 17.4497 39.2383 16.8834C39.0008 16.308 38.8821 15.6321 38.8821 14.8558C38.8821 14.0795 39.0054 13.4082 39.252 12.8419C39.4986 12.2665 39.8502 11.8235 40.3069 11.513C40.7635 11.2025 41.3024 11.0472 41.9235 11.0472C42.4258 11.0472 42.8733 11.1522 43.2661 11.3623C43.6588 11.5724 43.9556 11.8646 44.1566 12.2391V8.773H45.6088V18.5H44.2525L44.2114 17.404C44.0104 17.7967 43.7045 18.1073 43.2935 18.3356C42.8916 18.5548 42.4349 18.6644 41.9235 18.6644ZM42.3071 17.404C42.6998 17.404 43.0332 17.3035 43.3072 17.1026C43.5812 16.9017 43.7912 16.6094 43.9374 16.2258C44.0835 15.8422 44.1566 15.3855 44.1566 14.8558C44.1566 14.3078 44.0835 13.8466 43.9374 13.4721C43.7912 13.0885 43.5812 12.8008 43.3072 12.609C43.0332 12.4081 42.6998 12.3076 42.3071 12.3076C41.7225 12.3076 41.2567 12.5359 40.9097 12.9926C40.5626 13.4401 40.3891 14.0612 40.3891 14.8558C40.3891 15.6413 40.5626 16.2623 40.9097 16.719C41.2567 17.1757 41.7225 17.404 42.3071 17.404ZM49.8507 18.6644C49.2297 18.6644 48.6862 18.5091 48.2204 18.1986C47.7638 17.8881 47.4121 17.4497 47.1655 16.8834C46.9281 16.308 46.8093 15.6321 46.8093 14.8558C46.8093 14.0795 46.9326 13.4082 47.1792 12.8419C47.4258 12.2665 47.7775 11.8235 48.2341 11.513C48.6908 11.2025 49.2297 11.0472 49.8507 11.0472C50.3531 11.0472 50.8006 11.1522 51.1933 11.3623C51.5861 11.5724 51.8829 11.8646 52.0838 12.2391V8.773H53.536V18.5H52.1797L52.1386 17.404C51.9377 17.7967 51.6317 18.1073 51.2207 18.3356C50.8189 18.5548 50.3622 18.6644 49.8507 18.6644ZM50.2343 17.404C50.6271 17.404 50.9604 17.3035 51.2344 17.1026C51.5084 16.9017 51.7185 16.6094 51.8646 16.2258C52.0108 15.8422 52.0838 15.3855 52.0838 14.8558C52.0838 14.3078 52.0108 13.8466 51.8646 13.4721C51.7185 13.0885 51.5084 12.8008 51.2344 12.609C50.9604 12.4081 50.6271 12.3076 50.2343 12.3076C49.6498 12.3076 49.184 12.5359 48.8369 12.9926C48.4899 13.4401 48.3163 14.0612 48.3163 14.8558C48.3163 15.6413 48.4899 16.2623 48.8369 16.719C49.184 17.1757 49.6498 17.404 50.2343 17.404ZM61.1746 18.5C60.4805 18.5 59.969 18.3402 59.6402 18.0205C59.3114 17.7008 59.147 17.2031 59.147 16.5272V9.4991H60.5992V16.4176C60.5992 16.7555 60.6723 16.9884 60.8184 17.1163C60.9646 17.2442 61.1883 17.3081 61.4897 17.3081H62.5309V18.5H61.1746ZM58.0373 12.4035V11.2116H62.5309V12.4035H58.0373ZM66.5246 18.6644C65.8305 18.6644 65.2231 18.5091 64.7025 18.1986C64.1819 17.8881 63.78 17.4451 63.4969 16.8697C63.2138 16.2943 63.0722 15.623 63.0722 14.8558C63.0722 14.0795 63.2138 13.4082 63.4969 12.8419C63.78 12.2756 64.1819 11.8372 64.7025 11.5267C65.2231 11.207 65.8305 11.0472 66.5246 11.0472C67.2187 11.0472 67.8261 11.207 68.3467 11.5267C68.8673 11.8372 69.2692 12.2756 69.5523 12.8419C69.8354 13.4082 69.977 14.0795 69.977 14.8558C69.977 15.623 69.8354 16.2943 69.5523 16.8697C69.2692 17.4451 68.8673 17.8881 68.3467 18.1986C67.8261 18.5091 67.2187 18.6644 66.5246 18.6644ZM66.5246 17.404C67.1457 17.404 67.6252 17.1802 67.9631 16.7327C68.301 16.276 68.47 15.6504 68.47 14.8558C68.47 14.0612 68.301 13.4401 67.9631 12.9926C67.6252 12.5359 67.1457 12.3076 66.5246 12.3076C65.9127 12.3076 65.4332 12.5359 65.0861 12.9926C64.7482 13.4401 64.5792 14.0612 64.5792 14.8558C64.5792 15.6504 64.7482 16.276 65.0861 16.7327C65.4332 17.1802 65.9127 17.404 66.5246 17.404ZM77.1154 18.5L73.6082 8.773H75.1837L78.047 16.856L80.9103 8.773H82.4858L78.9649 18.5H77.1154ZM86.6827 18.7192C85.9064 18.7192 85.2305 18.5776 84.6551 18.2945C84.0889 18.0114 83.6413 17.6186 83.3125 17.1163C82.9837 16.614 82.7919 16.0294 82.7371 15.3627L84.2578 15.2668C84.3218 15.7235 84.4542 16.1116 84.6551 16.4313C84.8561 16.7418 85.1255 16.9793 85.4634 17.1437C85.8105 17.299 86.2261 17.3766 86.7101 17.3766C87.1303 17.3766 87.4865 17.3264 87.7787 17.2259C88.0801 17.1163 88.3085 16.9565 88.4637 16.7464C88.619 16.5363 88.6966 16.2806 88.6966 15.9792C88.6966 15.7052 88.6281 15.4632 88.4911 15.2531C88.3633 15.0339 88.1121 14.8375 87.7376 14.664C87.3723 14.4813 86.8334 14.3032 86.121 14.1297C85.3447 13.9379 84.7236 13.7278 84.2578 13.4995C83.792 13.2712 83.4541 12.988 83.244 12.6501C83.0431 12.303 82.9426 11.8783 82.9426 11.376C82.9426 10.8189 83.0751 10.3302 83.3399 9.9101C83.6139 9.48083 84.0021 9.14747 84.5044 8.91C85.0068 8.67253 85.6096 8.5538 86.3128 8.5538C87.0526 8.5538 87.6828 8.6908 88.2034 8.9648C88.7332 9.2388 89.1487 9.61327 89.4501 10.0882C89.7607 10.5631 89.9525 11.1066 90.0255 11.7185L88.5048 11.8007C88.4592 11.4262 88.345 11.0974 88.1623 10.8143C87.9797 10.522 87.7331 10.2983 87.4225 10.143C87.112 9.9786 86.733 9.8964 86.2854 9.8964C85.7192 9.8964 85.2716 10.0288 84.9428 10.2937C84.6232 10.5494 84.4633 10.8919 84.4633 11.3212C84.4633 11.5952 84.5273 11.8281 84.6551 12.0199C84.7921 12.2026 85.0296 12.3624 85.3675 12.4994C85.7146 12.6364 86.2032 12.7825 86.8334 12.9378C87.6737 13.1296 88.3404 13.3671 88.8336 13.6502C89.336 13.9242 89.6922 14.2484 89.9022 14.6229C90.1123 14.9974 90.2173 15.4221 90.2173 15.897C90.2173 16.4724 90.0666 16.9747 89.7652 17.404C89.473 17.8241 89.062 18.1484 88.5322 18.3767C88.0025 18.605 87.386 18.7192 86.6827 18.7192ZM98.7862 18.7192C97.9094 18.7192 97.1376 18.5183 96.4709 18.1164C95.8041 17.7054 95.2835 17.1209 94.9091 16.3628C94.5346 15.6047 94.3474 14.7005 94.3474 13.6502C94.3474 12.609 94.53 11.7094 94.8954 10.9513C95.2698 10.1841 95.7904 9.595 96.4572 9.184C97.1239 8.76387 97.9048 8.5538 98.7999 8.5538C100.005 8.5538 100.942 8.8552 101.608 9.458C102.275 10.0608 102.709 10.8965 102.91 11.9651L101.362 12.0473C101.234 11.3806 100.96 10.86 100.54 10.4855C100.12 10.1019 99.5397 9.9101 98.7999 9.9101C98.2062 9.9101 97.6902 10.0608 97.2518 10.3622C96.8225 10.6636 96.4846 11.0929 96.238 11.65C96.0005 12.2071 95.8818 12.8739 95.8818 13.6502C95.8818 14.4265 96.0005 15.0933 96.238 15.6504C96.4846 16.2075 96.8271 16.6322 97.2655 16.9245C97.7039 17.2168 98.2108 17.3629 98.7862 17.3629C99.5716 17.3629 100.179 17.1574 100.608 16.7464C101.047 16.3263 101.321 15.7509 101.43 15.0202L102.978 15.1024C102.86 15.8422 102.622 16.4815 102.266 17.0204C101.91 17.5593 101.439 17.9794 100.855 18.2808C100.27 18.5731 99.5808 18.7192 98.7862 18.7192ZM107.158 18.6644C106.464 18.6644 105.856 18.5091 105.336 18.1986C104.815 17.8881 104.413 17.4451 104.13 16.8697C103.847 16.2943 103.706 15.623 103.706 14.8558C103.706 14.0795 103.847 13.4082 104.13 12.8419C104.413 12.2756 104.815 11.8372 105.336 11.5267C105.856 11.207 106.464 11.0472 107.158 11.0472C107.852 11.0472 108.459 11.207 108.98 11.5267C109.501 11.8372 109.902 12.2756 110.186 12.8419C110.469 13.4082 110.61 14.0795 110.61 14.8558C110.61 15.623 110.469 16.2943 110.186 16.8697C109.902 17.4451 109.501 17.8881 108.98 18.1986C108.459 18.5091 107.852 18.6644 107.158 18.6644ZM107.158 17.404C107.779 17.404 108.258 17.1802 108.596 16.7327C108.934 16.276 109.103 15.6504 109.103 14.8558C109.103 14.0612 108.934 13.4401 108.596 12.9926C108.258 12.5359 107.779 12.3076 107.158 12.3076C106.546 12.3076 106.066 12.5359 105.719 12.9926C105.381 13.4401 105.213 14.0612 105.213 14.8558C105.213 15.6504 105.381 16.276 105.719 16.7327C106.066 17.1802 106.546 17.404 107.158 17.404ZM114.393 18.6644C113.772 18.6644 113.229 18.5091 112.763 18.1986C112.306 17.8881 111.955 17.4497 111.708 16.8834C111.471 16.308 111.352 15.6321 111.352 14.8558C111.352 14.0795 111.475 13.4082 111.722 12.8419C111.968 12.2665 112.32 11.8235 112.777 11.513C113.233 11.2025 113.772 11.0472 114.393 11.0472C114.896 11.0472 115.343 11.1522 115.736 11.3623C116.129 11.5724 116.425 11.8646 116.626 12.2391V8.773H118.079V18.5H116.722L116.681 17.404C116.48 17.7967 116.174 18.1073 115.763 18.3356C115.361 18.5548 114.905 18.6644 114.393 18.6644ZM114.777 17.404C115.17 17.404 115.503 17.3035 115.777 17.1026C116.051 16.9017 116.261 16.6094 116.407 16.2258C116.553 15.8422 116.626 15.3855 116.626 14.8558C116.626 14.3078 116.553 13.8466 116.407 13.4721C116.261 13.0885 116.051 12.8008 115.777 12.609C115.503 12.4081 115.17 12.3076 114.777 12.3076C114.192 12.3076 113.727 12.5359 113.379 12.9926C113.032 13.4401 112.859 14.0612 112.859 14.8558C112.859 15.6413 113.032 16.2623 113.379 16.719C113.727 17.1757 114.192 17.404 114.777 17.404ZM122.732 18.6644C122.019 18.6644 121.403 18.5091 120.882 18.1986C120.371 17.8881 119.973 17.4451 119.69 16.8697C119.416 16.2943 119.279 15.623 119.279 14.8558C119.279 14.0886 119.416 13.4219 119.69 12.8556C119.973 12.2802 120.371 11.8372 120.882 11.5267C121.393 11.207 121.996 11.0472 122.69 11.0472C123.348 11.0472 123.928 11.2025 124.43 11.513C124.933 11.8144 125.321 12.2528 125.595 12.8282C125.878 13.4036 126.02 14.0977 126.02 14.9106V15.2805H120.786C120.823 15.9929 121.01 16.5272 121.348 16.8834C121.695 17.2396 122.161 17.4177 122.745 17.4177C123.174 17.4177 123.531 17.3172 123.814 17.1163C124.097 16.9154 124.293 16.6459 124.403 16.308L125.91 16.4039C125.718 17.0798 125.339 17.6278 124.773 18.0479C124.216 18.4589 123.535 18.6644 122.732 18.6644ZM120.786 14.1845H124.485C124.439 13.536 124.252 13.0565 123.923 12.746C123.604 12.4355 123.193 12.2802 122.69 12.2802C122.17 12.2802 121.741 12.4446 121.403 12.7734C121.074 13.0931 120.868 13.5634 120.786 14.1845Z" fill="#DDE4EE"/>
<defs>
<filter id="filter0_d_10131_13808" x="5.7409" y="8.87434" width="17.5091" height="13.8369" filterUnits="userSpaceOnUse" color-interpolation-filters="sRGB">
<feFlood flood-opacity="0" result="BackgroundImageFix"/>
<feColorMatrix in="SourceAlpha" type="matrix" values="0 0 0 0 0 0 0 0 0 0 0 0 0 0 0 0 0 0 127 0" result="hardAlpha"/>
<feOffset/>
<feGaussianBlur stdDeviation="0.625"/>
<feColorMatrix type="matrix" values="0 0 0 0 0 0 0 0 0 0 0 0 0 0 0 0 0 0 0.25 0"/>
<feBlend mode="overlay" in2="BackgroundImageFix" result="effect1_dropShadow_10131_13808"/>
<feBlend mode="normal" in="SourceGraphic" in2="effect1_dropShadow_10131_13808" result="shape"/>
</filter>
<filter id="filter1_d_10131_13808" x="16.0625" y="5.28865" width="7.1875" height="17.4227" filterUnits="userSpaceOnUse" color-interpolation-filters="sRGB">
<feFlood flood-opacity="0" result="BackgroundImageFix"/>
<feColorMatrix in="SourceAlpha" type="matrix" values="0 0 0 0 0 0 0 0 0 0 0 0 0 0 0 0 0 0 127 0" result="hardAlpha"/>
<feOffset/>
<feGaussianBlur stdDeviation="0.625"/>
<feColorMatrix type="matrix" values="0 0 0 0 0 0 0 0 0 0 0 0 0 0 0 0 0 0 0.25 0"/>
<feBlend mode="overlay" in2="BackgroundImageFix" result="effect1_dropShadow_10131_13808"/>
<feBlend mode="normal" in="SourceGraphic" in2="effect1_dropShadow_10131_13808" result="shape"/>
</filter>
<linearGradient id="paint0_linear_10131_13808" x1="14.4909" y1="6.53871" x2="14.4909" y2="21.4614" gradientUnits="userSpaceOnUse">
<stop stop-color="white"/>
<stop offset="1" stop-color="white" stop-opacity="0"/>
</linearGradient>
<clipPath id="clip0_10131_13808">
<rect width="15" height="15" fill="white" transform="translate(7 6.5)"/>
</clipPath>
</defs>
</svg>
