<svg width="137" height="28" viewBox="0 0 137 28" fill="none" xmlns="http://www.w3.org/2000/svg">
<rect width="137" height="28" rx="4" fill="#0F1217"/>
<g clip-path="url(#clip0_10131_13808)">
<mask id="mask0_10131_13808" style="mask-type:alpha" maskUnits="userSpaceOnUse" x="7" y="6" width="15" height="16">
<path fill-rule="evenodd" clip-rule="evenodd" d="M17.6368 21.3976C17.873 21.4896 18.1424 21.4837 18.3809 21.369L21.4691 19.883C21.7936 19.7268 22 19.3984 22 19.0381V8.96199C22 8.60169 21.7936 8.27327 21.4691 8.11712L18.3809 6.63106C18.0679 6.48048 17.7017 6.51736 17.427 6.71704C17.3878 6.74557 17.3504 6.77741 17.3153 6.81251L11.4033 12.2062L8.82808 10.2514C8.58835 10.0695 8.25304 10.0844 8.0304 10.2869L7.20445 11.0382C6.93212 11.286 6.93181 11.7144 7.20378 11.9625L9.43707 14L7.20378 16.0375C6.93181 16.2856 6.93212 16.7141 7.20445 16.9618L8.0304 17.7131C8.25304 17.9156 8.58835 17.9306 8.82808 17.7486L11.4033 15.7938L17.3153 21.1875C17.4089 21.2811 17.5187 21.3516 17.6368 21.3976ZM18.2523 10.5948L13.7664 14L18.2523 17.4052V10.5948Z" fill="white"/>
</mask>
<g mask="url(#mask0_10131_13808)">
<path d="M21.4692 8.11941L18.3786 6.63131C18.0208 6.45907 17.5933 6.53172 17.3125 6.81248L7.19481 16.0375C6.92267 16.2856 6.92298 16.714 7.19548 16.9618L8.02193 17.7131C8.24471 17.9156 8.58023 17.9305 8.82009 17.7486L21.0042 8.50547C21.4129 8.19537 22 8.48691 22 8.99999V8.96411C22 8.60396 21.7937 8.27565 21.4692 8.11941Z" fill="#0065A9"/>
<g filter="url(#filter0_d_10131_13808)">
<path d="M21.4692 19.8806L18.3786 21.3687C18.0208 21.5409 17.5933 21.4682 17.3125 21.1875L7.19481 11.9625C6.92267 11.7144 6.92298 11.2859 7.19548 11.0382L8.02193 10.2869C8.24471 10.0844 8.58023 10.0694 8.82009 10.2514L21.0042 19.4945C21.4129 19.8046 22 19.5131 22 19V19.0359C22 19.396 21.7937 19.7243 21.4692 19.8806Z" fill="#007ACC"/>
</g>
<g filter="url(#filter1_d_10131_13808)">
<path d="M18.3787 21.3689C18.0208 21.5411 17.5933 21.4683 17.3125 21.1875C17.6585 21.5334 18.25 21.2884 18.25 20.7992V7.20081C18.25 6.71155 17.6585 6.46652 17.3125 6.81248C17.5933 6.5317 18.0208 6.45894 18.3787 6.63103L21.4688 8.11709C21.7935 8.27324 22 8.60167 22 8.96197V19.0381C22 19.3984 21.7935 19.7268 21.4688 19.8829L18.3787 21.3689Z" fill="#1F9CF0"/>
</g>
<g style="mix-blend-mode:overlay" opacity="0.25">
<path fill-rule="evenodd" clip-rule="evenodd" d="M17.6277 21.3976C17.8639 21.4896 18.1333 21.4837 18.3718 21.369L21.46 19.883C21.7845 19.7268 21.9909 19.3984 21.9909 19.0381V8.96203C21.9909 8.60172 21.7845 8.27329 21.46 8.11714L18.3718 6.63109C18.0588 6.48051 17.6926 6.51739 17.4179 6.71707C17.3787 6.7456 17.3413 6.77745 17.3063 6.81254L11.3942 12.2063L8.81898 10.2515C8.57927 10.0695 8.24395 10.0844 8.02131 10.2869L7.19536 11.0383C6.92302 11.286 6.92271 11.7144 7.19469 11.9626L9.42797 14L7.19469 16.0375C6.92271 16.2856 6.92302 16.7141 7.19536 16.9618L8.02131 17.7131C8.24395 17.9157 8.57927 17.9306 8.81898 17.7486L11.3942 15.7938L17.3063 21.1875C17.3998 21.2811 17.5096 21.3516 17.6277 21.3976ZM18.2432 10.5949L13.7573 14L18.2432 17.4052V10.5949Z" fill="url(#paint0_linear_10131_13808)"/>
</g>
</g>
</g>
<path d="M29.4713 18.5L33.0297 8.631H34.934L38.4924 18.5H36.8939L35.9904 15.9285H31.9594L31.0698 18.5H29.4713ZM32.432 14.5663H35.5317L33.9749 10.0627L32.432 14.5663ZM41.8968 18.6668C41.2667 18.6668 40.7153 18.5093 40.2427 18.1942C39.7794 17.8791 39.4226 17.4343 39.1724 16.8598C38.9315 16.276 38.811 15.5903 38.811 14.8026C38.811 14.0149 38.9361 13.3338 39.1863 12.7593C39.4365 12.1755 39.7933 11.7261 40.2566 11.411C40.7199 11.0959 41.2667 10.9384 41.8968 10.9384C42.4065 10.9384 42.8605 11.045 43.259 11.2581C43.6575 11.4712 43.9586 11.7678 44.1625 12.1477V8.631H45.6359V18.5H44.2598L44.2181 17.388C44.0142 17.7865 43.7038 18.1015 43.2868 18.3332C42.8791 18.5556 42.4157 18.6668 41.8968 18.6668ZM42.286 17.388C42.6845 17.388 43.0227 17.2861 43.3007 17.0822C43.5787 16.8783 43.7918 16.5818 43.9401 16.1926C44.0884 15.8034 44.1625 15.3401 44.1625 14.8026C44.1625 14.2466 44.0884 13.7786 43.9401 13.3987C43.7918 13.0095 43.5787 12.7176 43.3007 12.523C43.0227 12.3191 42.6845 12.2172 42.286 12.2172C41.6929 12.2172 41.2203 12.4489 40.8682 12.9122C40.5161 13.3663 40.34 13.9964 40.34 14.8026C40.34 15.5995 40.5161 16.2297 40.8682 16.693C41.2203 17.1563 41.6929 17.388 42.286 17.388ZM49.9398 18.6668C49.3097 18.6668 48.7583 18.5093 48.2857 18.1942C47.8224 17.8791 47.4656 17.4343 47.2154 16.8598C46.9745 16.276 46.854 15.5903 46.854 14.8026C46.854 14.0149 46.9791 13.3338 47.2293 12.7593C47.4795 12.1755 47.8363 11.7261 48.2996 11.411C48.7629 11.0959 49.3097 10.9384 49.9398 10.9384C50.4495 10.9384 50.9035 11.045 51.302 11.2581C51.7005 11.4712 52.0016 11.7678 52.2055 12.1477V8.631H53.6789V18.5H52.3028L52.2611 17.388C52.0572 17.7865 51.7468 18.1015 51.3298 18.3332C50.9221 18.5556 50.4587 18.6668 49.9398 18.6668ZM50.329 17.388C50.7275 17.388 51.0657 17.2861 51.3437 17.0822C51.6217 16.8783 51.8348 16.5818 51.9831 16.1926C52.1314 15.8034 52.2055 15.3401 52.2055 14.8026C52.2055 14.2466 52.1314 13.7786 51.9831 13.3987C51.8348 13.0095 51.6217 12.7176 51.3437 12.523C51.0657 12.3191 50.7275 12.2172 50.329 12.2172C49.7359 12.2172 49.2633 12.4489 48.9112 12.9122C48.5591 13.3663 48.383 13.9964 48.383 14.8026C48.383 15.5995 48.5591 16.2297 48.9112 16.693C49.2633 17.1563 49.7359 17.388 50.329 17.388ZM61.429 18.5C60.7247 18.5 60.2058 18.3378 59.8722 18.0135C59.5386 17.6892 59.3718 17.1841 59.3718 16.4984V9.3677H60.8452V16.3872C60.8452 16.7301 60.9193 16.9664 61.0676 17.0961C61.2159 17.2258 61.4429 17.2907 61.7487 17.2907H62.8051V18.5H61.429ZM58.2459 12.3145V11.1052H62.8051V12.3145H58.2459ZM66.8571 18.6668C66.1528 18.6668 65.5366 18.5093 65.0084 18.1942C64.4802 17.8791 64.0724 17.4297 63.7852 16.8459C63.4979 16.2621 63.3543 15.581 63.3543 14.8026C63.3543 14.0149 63.4979 13.3338 63.7852 12.7593C64.0724 12.1848 64.4802 11.74 65.0084 11.4249C65.5366 11.1006 66.1528 10.9384 66.8571 10.9384C67.5613 10.9384 68.1776 11.1006 68.7058 11.4249C69.234 11.74 69.6417 12.1848 69.929 12.7593C70.2162 13.3338 70.3599 14.0149 70.3599 14.8026C70.3599 15.581 70.2162 16.2621 69.929 16.8459C69.6417 17.4297 69.234 17.8791 68.7058 18.1942C68.1776 18.5093 67.5613 18.6668 66.8571 18.6668ZM66.8571 17.388C67.4872 17.388 67.9737 17.161 68.3166 16.7069C68.6594 16.2436 68.8309 15.6088 68.8309 14.8026C68.8309 13.9964 68.6594 13.3663 68.3166 12.9122C67.9737 12.4489 67.4872 12.2172 66.8571 12.2172C66.2362 12.2172 65.7497 12.4489 65.3976 12.9122C65.0547 13.3663 64.8833 13.9964 64.8833 14.8026C64.8833 15.6088 65.0547 16.2436 65.3976 16.7069C65.7497 17.161 66.2362 17.388 66.8571 17.388ZM77.6025 18.5L74.0441 8.631H75.6426L78.5477 16.832L81.4528 8.631H83.0513L79.479 18.5H77.6025ZM87.3095 18.7224C86.5218 18.7224 85.8361 18.5788 85.2523 18.2915C84.6778 18.0042 84.2237 17.6058 83.8901 17.0961C83.5565 16.5864 83.3619 15.9934 83.3063 15.3169L84.8492 15.2196C84.9141 15.6829 85.0484 16.0768 85.2523 16.4011C85.4562 16.7162 85.7295 16.9571 86.0724 17.1239C86.4245 17.2814 86.8462 17.3602 87.3373 17.3602C87.7636 17.3602 88.125 17.3092 88.4215 17.2073C88.7273 17.0961 88.959 16.9339 89.1165 16.7208C89.274 16.5077 89.3528 16.2482 89.3528 15.9424C89.3528 15.6644 89.2833 15.4188 89.1443 15.2057C89.0146 14.9833 88.7597 14.7841 88.3798 14.608C88.0091 14.4227 87.4624 14.242 86.7396 14.0659C85.9519 13.8713 85.3218 13.6582 84.8492 13.4265C84.3766 13.1948 84.0337 12.9076 83.8206 12.5647C83.6167 12.2126 83.5148 11.7817 83.5148 11.272C83.5148 10.7067 83.6492 10.211 83.9179 9.7847C84.1959 9.34917 84.5897 9.01093 85.0994 8.77C85.6091 8.52907 86.2207 8.4086 86.9342 8.4086C87.6848 8.4086 88.3242 8.5476 88.8524 8.8256C89.3899 9.1036 89.8115 9.48353 90.1173 9.9654C90.4324 10.4473 90.627 10.9986 90.7011 11.6195L89.1582 11.7029C89.1119 11.323 88.996 10.9894 88.8107 10.7021C88.6254 10.4056 88.3752 10.1785 88.0601 10.021C87.745 9.8542 87.3605 9.7708 86.9064 9.7708C86.3319 9.7708 85.8778 9.90517 85.5442 10.1739C85.2199 10.4334 85.0577 10.7809 85.0577 11.2164C85.0577 11.4944 85.1226 11.7307 85.2523 11.9253C85.3913 12.1106 85.6322 12.2728 85.9751 12.4118C86.3272 12.5508 86.823 12.6991 87.4624 12.8566C88.3149 13.0512 88.9914 13.2921 89.4918 13.5794C90.0015 13.8574 90.3629 14.1864 90.576 14.5663C90.7891 14.9462 90.8957 15.3771 90.8957 15.859C90.8957 16.4428 90.7428 16.9525 90.437 17.388C90.1405 17.8143 89.7235 18.1432 89.186 18.3749C88.6485 18.6066 88.023 18.7224 87.3095 18.7224ZM99.5896 18.7224C98.7 18.7224 97.917 18.5185 97.2405 18.1108C96.564 17.6938 96.0358 17.1007 95.6559 16.3316C95.276 15.5625 95.086 14.6451 95.086 13.5794C95.086 12.523 95.2713 11.6102 95.642 10.8411C96.0219 10.0627 96.5501 9.465 97.2266 9.048C97.9031 8.62173 98.6954 8.4086 99.6035 8.4086C100.827 8.4086 101.777 8.7144 102.453 9.326C103.129 9.9376 103.57 10.7855 103.774 11.8697L102.203 11.9531C102.073 11.2766 101.795 10.7484 101.369 10.3685C100.943 9.9793 100.354 9.7847 99.6035 9.7847C99.0012 9.7847 98.4776 9.9376 98.0328 10.2434C97.5973 10.5492 97.2544 10.9847 97.0042 11.55C96.7633 12.1153 96.6428 12.7917 96.6428 13.5794C96.6428 14.3671 96.7633 15.0435 97.0042 15.6088C97.2544 16.1741 97.6019 16.605 98.0467 16.9015C98.4915 17.198 99.0058 17.3463 99.5896 17.3463C100.387 17.3463 101.003 17.1378 101.438 16.7208C101.883 16.2945 102.161 15.7107 102.272 14.9694L103.843 15.0528C103.723 15.8034 103.482 16.4521 103.12 16.9988C102.759 17.5455 102.282 17.9718 101.689 18.2776C101.095 18.5741 100.396 18.7224 99.5896 18.7224ZM108.084 18.6668C107.379 18.6668 106.763 18.5093 106.235 18.1942C105.707 17.8791 105.299 17.4297 105.012 16.8459C104.724 16.2621 104.581 15.581 104.581 14.8026C104.581 14.0149 104.724 13.3338 105.012 12.7593C105.299 12.1848 105.707 11.74 106.235 11.4249C106.763 11.1006 107.379 10.9384 108.084 10.9384C108.788 10.9384 109.404 11.1006 109.932 11.4249C110.46 11.74 110.868 12.1848 111.155 12.7593C111.443 13.3338 111.586 14.0149 111.586 14.8026C111.586 15.581 111.443 16.2621 111.155 16.8459C110.868 17.4297 110.46 17.8791 109.932 18.1942C109.404 18.5093 108.788 18.6668 108.084 18.6668ZM108.084 17.388C108.714 17.388 109.2 17.161 109.543 16.7069C109.886 16.2436 110.057 15.6088 110.057 14.8026C110.057 13.9964 109.886 13.3663 109.543 12.9122C109.2 12.4489 108.714 12.2172 108.084 12.2172C107.463 12.2172 106.976 12.4489 106.624 12.9122C106.281 13.3663 106.11 13.9964 106.11 14.8026C106.11 15.6088 106.281 16.2436 106.624 16.7069C106.976 17.161 107.463 17.388 108.084 17.388ZM115.425 18.6668C114.794 18.6668 114.243 18.5093 113.77 18.1942C113.307 17.8791 112.95 17.4343 112.7 16.8598C112.459 16.276 112.339 15.5903 112.339 14.8026C112.339 14.0149 112.464 13.3338 112.714 12.7593C112.964 12.1755 113.321 11.7261 113.784 11.411C114.248 11.0959 114.794 10.9384 115.425 10.9384C115.934 10.9384 116.388 11.045 116.787 11.2581C117.185 11.4712 117.486 11.7678 117.69 12.1477V8.631H119.164V18.5H117.788L117.746 17.388C117.542 17.7865 117.232 18.1015 116.815 18.3332C116.407 18.5556 115.943 18.6668 115.425 18.6668ZM115.814 17.388C116.212 17.388 116.55 17.2861 116.828 17.0822C117.106 16.8783 117.32 16.5818 117.468 16.1926C117.616 15.8034 117.69 15.3401 117.69 14.8026C117.69 14.2466 117.616 13.7786 117.468 13.3987C117.32 13.0095 117.106 12.7176 116.828 12.523C116.55 12.3191 116.212 12.2172 115.814 12.2172C115.221 12.2172 114.748 12.4489 114.396 12.9122C114.044 13.3663 113.868 13.9964 113.868 14.8026C113.868 15.5995 114.044 16.2297 114.396 16.693C114.748 17.1563 115.221 17.388 115.814 17.388ZM123.885 18.6668C123.162 18.6668 122.536 18.5093 122.008 18.1942C121.489 17.8791 121.086 17.4297 120.799 16.8459C120.521 16.2621 120.382 15.581 120.382 14.8026C120.382 14.0242 120.521 13.3477 120.799 12.7732C121.086 12.1894 121.489 11.74 122.008 11.4249C122.527 11.1006 123.139 10.9384 123.843 10.9384C124.51 10.9384 125.098 11.0959 125.608 11.411C126.118 11.7168 126.512 12.1616 126.79 12.7454C127.077 13.3292 127.221 14.0335 127.221 14.8582V15.2335H121.911C121.948 15.9563 122.138 16.4984 122.481 16.8598C122.833 17.2212 123.305 17.4019 123.898 17.4019C124.334 17.4019 124.695 17.3 124.983 17.0961C125.27 16.8922 125.469 16.6189 125.58 16.276L127.109 16.3733C126.915 17.059 126.53 17.615 125.956 18.0413C125.39 18.4583 124.7 18.6668 123.885 18.6668ZM121.911 14.1215H125.664C125.617 13.4636 125.427 12.9771 125.094 12.662C124.769 12.3469 124.352 12.1894 123.843 12.1894C123.315 12.1894 122.879 12.3562 122.536 12.6898C122.203 13.0141 121.994 13.4914 121.911 14.1215Z" fill="#E2E8F1"/>
<defs>
<filter id="filter0_d_10131_13808" x="5.7409" y="8.87434" width="17.5091" height="13.8369" filterUnits="userSpaceOnUse" color-interpolation-filters="sRGB">
<feFlood flood-opacity="0" result="BackgroundImageFix"/>
<feColorMatrix in="SourceAlpha" type="matrix" values="0 0 0 0 0 0 0 0 0 0 0 0 0 0 0 0 0 0 127 0" result="hardAlpha"/>
<feOffset/>
<feGaussianBlur stdDeviation="0.625"/>
<feColorMatrix type="matrix" values="0 0 0 0 0 0 0 0 0 0 0 0 0 0 0 0 0 0 0.25 0"/>
<feBlend mode="overlay" in2="BackgroundImageFix" result="effect1_dropShadow_10131_13808"/>
<feBlend mode="normal" in="SourceGraphic" in2="effect1_dropShadow_10131_13808" result="shape"/>
</filter>
<filter id="filter1_d_10131_13808" x="16.0625" y="5.28865" width="7.1875" height="17.4227" filterUnits="userSpaceOnUse" color-interpolation-filters="sRGB">
<feFlood flood-opacity="0" result="BackgroundImageFix"/>
<feColorMatrix in="SourceAlpha" type="matrix" values="0 0 0 0 0 0 0 0 0 0 0 0 0 0 0 0 0 0 127 0" result="hardAlpha"/>
<feOffset/>
<feGaussianBlur stdDeviation="0.625"/>
<feColorMatrix type="matrix" values="0 0 0 0 0 0 0 0 0 0 0 0 0 0 0 0 0 0 0.25 0"/>
<feBlend mode="overlay" in2="BackgroundImageFix" result="effect1_dropShadow_10131_13808"/>
<feBlend mode="normal" in="SourceGraphic" in2="effect1_dropShadow_10131_13808" result="shape"/>
</filter>
<linearGradient id="paint0_linear_10131_13808" x1="14.4909" y1="6.53871" x2="14.4909" y2="21.4614" gradientUnits="userSpaceOnUse">
<stop stop-color="white"/>
<stop offset="1" stop-color="white" stop-opacity="0"/>
</linearGradient>
<clipPath id="clip0_10131_13808">
<rect width="15" height="15" fill="white" transform="translate(7 6.5)"/>
</clipPath>
</defs>
</svg>
